<svg width="18" height="18" viewBox="0 0 18 18" fill="none" xmlns="http://www.w3.org/2000/svg">
<path d="M8.14697 9.85322H4.45078C4.21141 9.85322 4.00934 9.77091 3.84459 9.60628C3.67997 9.44153 3.59766 9.23947 3.59766 9.00009C3.59766 8.76072 3.67997 8.55866 3.84459 8.39391C4.00934 8.22928 4.21141 8.14697 4.45078 8.14697H8.14697V4.45078C8.14697 4.21141 8.22928 4.00934 8.39391 3.84459C8.55866 3.67997 8.76072 3.59766 9.00009 3.59766C9.23947 3.59766 9.44153 3.67997 9.60628 3.84459C9.77091 4.00934 9.85322 4.21141 9.85322 4.45078V8.14697H13.5494C13.7888 8.14697 13.9908 8.22928 14.1556 8.39391C14.3202 8.55866 14.4025 8.76072 14.4025 9.00009C14.4025 9.23947 14.3202 9.44153 14.1556 9.60628C13.9908 9.77091 13.7888 9.85322 13.5494 9.85322H9.85322V13.5494C9.85322 13.7888 9.77091 13.9908 9.60628 14.1556C9.44153 14.3202 9.23947 14.4025 9.00009 14.4025C8.76072 14.4025 8.55866 14.3202 8.39391 14.1556C8.22928 13.9908 8.14697 13.7888 8.14697 13.5494V9.85322Z" fill="white"/>
</svg>
