<svg width="24" height="24" viewBox="0 0 24 24" fill="none" xmlns="http://www.w3.org/2000/svg">
<path d="M20.5772 15.7693L17.5387 12.7308V14.848L16.5387 13.848V6.61551C16.5387 6.43601 16.481 6.28851 16.3657 6.17301C16.2502 6.05768 16.1027 6.00001 15.9232 6.00001H8.69068L7.69068 5.00001H15.9232C16.3835 5.00001 16.7679 5.15418 17.0762 5.46251C17.3845 5.77085 17.5387 6.15518 17.5387 6.61551V11.2693L20.5772 8.23076V15.7693ZM19.3964 20.9655L2.41943 3.98851L3.12718 3.28076L20.1039 20.2578L19.3964 20.9655ZM4.88468 5.03851L5.84643 6.00001H5.15393C4.97443 6.00001 4.82702 6.05768 4.71168 6.17301C4.59635 6.28851 4.53868 6.43601 4.53868 6.61551V17.3845C4.53868 17.564 4.59635 17.7115 4.71168 17.827C4.82702 17.9423 4.97443 18 5.15393 18H15.9232C16.1027 18 16.2502 17.9423 16.3657 17.827C16.481 17.7115 16.5387 17.564 16.5387 17.3845V16.6923L17.5002 17.6538C17.436 18.0371 17.2594 18.3573 16.9704 18.6145C16.6813 18.8715 16.3322 19 15.9232 19H5.15393C4.69377 19 4.30952 18.8458 4.00118 18.5375C3.69285 18.2292 3.53868 17.8448 3.53868 17.3845V6.61551C3.53868 6.20651 3.66718 5.85743 3.92418 5.56826C4.18118 5.2791 4.50135 5.10251 4.88468 5.03851Z" fill="white"/>
</svg>
